<?xml version="1.0" encoding="UTF-8"?>
<svg id="Layer_2" data-name="Layer 2" xmlns="http://www.w3.org/2000/svg" viewBox="0 0 715.29 245.27">
  <defs>
    <style>
      .cls-1 {
        fill: #010101;
      }

      .cls-2 {
        fill: #9be12c;
      }

      .cls-3 {
        fill: #f6f6f9;
        font-family: GoogleSans-Bold, 'Google Sans';
        font-size: 25.84px;
        font-variation-settings: 'opsz' 18, 'wght' 700, 'GRAD' 0;
        font-weight: 700;
      }

      .cls-4 {
        fill: #fff;
      }
    </style>
  </defs>
  <g id="Layer_1-2" data-name="Layer 1">
    <path class="cls-4" d="M482.28,30.86h35.37l27.42,113.22h.51V30.86h25.12v189.15h-28.96l-33.83-138.08h-.51v138.08h-25.12V30.86Z"/>
    <path class="cls-4" d="M591.71,30.86h76.88v27.02h-48.69v49.99h38.7v27.02h-38.7v58.09h48.69v27.02h-76.88V30.86Z"/>
    <path class="cls-4" d="M341.58,119.49v-.54c6.15-2.7,10.72-7.11,13.71-13.24,2.99-6.12,4.48-14.05,4.48-23.78v-7.57c0-14.77-3.33-25.71-9.99-32.83-6.66-7.11-17.26-10.67-31.78-10.67h-42.54v189.15h44.34c14.01,0,24.64-3.83,31.91-11.48,7.26-7.65,10.89-18.78,10.89-33.37v-16.21c0-21.25-7.01-34.41-21.01-39.45ZM298.51,204.88v-80.21s39.35,1.67,40.84,40.11c0,0,3.72,40.11-40.84,40.11ZM298.51,120.17V39.95s39.35,1.67,40.84,40.11c0,0,3.72,40.11-40.84,40.11Z"/>
    <path class="cls-4" d="M463.31,210.14c-.34-3.33-.51-7.7-.51-13.11v-33.24c0-11.17-1.41-20.08-4.23-26.75-2.82-6.66-7.65-11.08-14.48-13.24v-.54c12.3-5.22,18.45-17.65,18.45-37.29v-11.62c0-14.77-3.33-25.71-9.99-32.83-6.66-7.11-17.26-10.67-31.78-10.67h-41.77v189.15h28.19v-81.06h9.74c6.49,0,11.06,1.71,13.71,5.13,2.65,3.42,3.97,9.46,3.97,18.1v34.59c0,7.02.17,11.89.51,14.59.34,2.7,1.03,5.59,2.05,8.65h28.7c-1.37-3.24-2.22-6.53-2.56-9.86ZM406.35,118.52V38.31s39.35,1.67,40.84,40.11c0,0,3.72,40.11-40.84,40.11Z"/>
    <g>
      <circle class="cls-2" cx="119.26" cy="126.01" r="119.26"/>
      <path class="cls-1" d="M123.62,128.39h99.17s-2.07,48.65-49.59,50.5c0,0-49.59,4.6-49.59-50.5Z"/>
      <path class="cls-1" d="M18.88,128.39h99.17s-2.07,48.65-49.59,50.5c0,0-49.59,4.6-49.59-50.5Z"/>
    </g>
    <text class="cls-3" transform="translate(677.09 22.17)"><tspan x="0" y="0">TM</tspan></text>
  </g>
</svg>