<?xml version="1.0" encoding="UTF-8"?>
<svg id="Layer_2" data-name="Layer 2" xmlns="http://www.w3.org/2000/svg" viewBox="0 0 641.2 229.7">
  <defs>
    <style>
      .cls-1 {
        fill: #010101;
      }

      .cls-2 {
        fill: #090a0a;
      }

      .cls-3 {
        fill: #9be12c;
        stroke: #090a0a;
        stroke-miterlimit: 10;
        stroke-width: 8px;
      }
    </style>
  </defs>
  <g id="Layer_1-2" data-name="Layer 1">
    <polygon class="cls-2" points="492.62 135.07 492.16 135.07 467.6 33.67 435.93 33.67 435.93 203.07 458.42 203.07 458.42 79.41 458.88 79.41 489.18 203.07 515.12 203.07 515.12 33.67 492.62 33.67 492.62 135.07"/>
    <polygon class="cls-2" points="602.79 57.87 602.79 33.67 533.93 33.67 533.93 203.07 602.79 203.07 602.79 178.87 559.18 178.87 559.18 126.84 593.84 126.84 593.84 102.64 559.18 102.64 559.18 57.87 602.79 57.87"/>
    <path class="cls-2" d="M309.92,113.04v-.48c5.51-2.42,9.6-6.37,12.28-11.86,2.68-5.48,4.02-12.58,4.02-21.3v-6.78c0-13.23-2.98-23.03-8.95-29.4-5.97-6.37-15.46-9.56-28.46-9.56h-38.1v169.4h39.71c12.55,0,22.07-3.43,28.58-10.28,6.5-6.86,9.75-16.82,9.75-29.89v-14.52c0-19.03-6.28-30.81-18.82-35.33ZM271.35,189.53v-71.84s35.24,1.5,36.58,35.92c0,0,3.33,35.92-36.58,35.92ZM271.35,113.66V41.82s35.24,1.5,36.58,35.92c0,0,3.33,35.92-36.58,35.92Z"/>
    <path class="cls-2" d="M418.94,194.24c-.31-2.98-.46-6.9-.46-11.74v-29.77c0-10-1.26-17.99-3.79-23.96-2.53-5.97-6.85-9.92-12.97-11.86v-.48c11.02-4.68,16.53-15.81,16.53-33.4v-10.41c0-13.23-2.98-23.03-8.95-29.4-5.97-6.37-15.46-9.56-28.46-9.56h-37.41v169.4h25.25v-72.6h8.72c5.81,0,9.91,1.54,12.28,4.6,2.37,3.07,3.56,8.47,3.56,16.21v30.98c0,6.29.15,10.65.46,13.07.31,2.42.92,5,1.84,7.74h25.71c-1.23-2.9-1.99-5.85-2.3-8.83ZM367.92,112.18V40.34s35.24,1.5,36.58,35.92c0,0,3.33,35.92-36.58,35.92Z"/>
    <g>
      <circle class="cls-3" cx="110.81" cy="118.89" r="106.81"/>
      <path class="cls-1" d="M114.72,121.02h88.82s-1.85,43.58-44.41,45.23c0,0-44.41,4.12-44.41-45.23Z"/>
      <path class="cls-1" d="M20.91,121.02h88.82s-1.85,43.58-44.41,45.23c0,0-44.41,4.12-44.41-45.23Z"/>
    </g>
    <g>
      <path class="cls-2" d="M605.66,3.31V0h13.83v3.31h-13.83ZM610.83,18.5V1.76h3.49v16.75h-3.49Z"/>
      <path class="cls-2" d="M622.15,18.5V0h4.5l4.91,13h.21l4.91-13h4.52v18.5h-3.46v-9.12l.21-3.08h-.21l-4.7,12.2h-2.71l-4.73-12.2h-.21l.21,3.08v9.12h-3.44Z"/>
    </g>
  </g>
</svg>